<svg width="15" height="16" viewBox="0 0 15 16" fill="none" xmlns="http://www.w3.org/2000/svg">
<path d="M10.999 9.67929H10.304L10.0576 9.44174C10.6075 8.80296 11.0093 8.05054 11.2344 7.23833C11.4595 6.42611 11.5023 5.57418 11.3597 4.7435C10.9462 2.2976 8.90505 0.344397 6.44155 0.0452577C5.57547 -0.0643101 4.6958 0.0257007 3.86986 0.308402C3.04392 0.591104 2.29359 1.059 1.6763 1.6763C1.059 2.29359 0.591104 3.04392 0.308402 3.86986C0.0257007 4.6958 -0.0643101 5.57547 0.0452577 6.44155C0.344397 8.90505 2.2976 10.9462 4.7435 11.3597C5.57418 11.5023 6.42611 11.4595 7.23833 11.2344C8.05054 11.0093 8.80296 10.6075 9.44174 10.0576L9.67929 10.304V10.999L13.4185 14.7383C13.7793 15.099 14.3687 15.099 14.7295 14.7383C15.0902 14.3775 15.0902 13.788 14.7295 13.4273L10.999 9.67929ZM5.7201 9.67929C3.52935 9.67929 1.76091 7.91085 1.76091 5.7201C1.76091 3.52935 3.52935 1.76091 5.7201 1.76091C7.91085 1.76091 9.67929 3.52935 9.67929 5.7201C9.67929 7.91085 7.91085 9.67929 5.7201 9.67929Z" fill="#4F6382"/>
</svg>
