<svg width="380" height="30" viewBox="0 0 380 30" fill="none" xmlns="http://www.w3.org/2000/svg">
<path d="M110.296 14.4375L111.328 11.1186H99.9242L94.3985 29.2309H105.772L108.692 19.6674H120.655C127.468 19.6674 130.097 18.1369 131.384 13.8794L133.206 7.96032C134.493 3.70282 132.884 1.94824 126.126 1.94824H102.711L101.187 6.95408H122.161L119.78 14.4755H110.277V14.4206L110.296 14.4375Z" fill="white"/>
<path d="M62.7745 1.965H74.1477L72.6601 6.97084H61.2868L62.7745 1.965ZM71.4213 11.1184L69.7454 16.7542L84.3187 1.95654H96.0137L87.9316 29.2308H76.5098L80.9061 14.4331L66.3328 29.2308H54.6499L60.0542 11.1184H71.4213Z" fill="white"/>
<path d="M0 29.2311H11.3732L15.3445 16.1584L19.1517 29.2311H28.8065L40.5562 16.1584L36.585 29.2311H48.0129L56.3257 1.96533H43.2887L26.4991 20.9021L23.8091 11.1187H5.5257L0 29.2311ZM22.6736 6.97117L21.2952 1.96533H8.31284L6.78872 6.97117H22.6736Z" fill="white"/>
<path d="M189.969 12.2609H192.343V5.8641L194.274 9.90598H194.335L196.26 5.8641V12.2609H198.634V1.97866H196.132L194.311 5.99094L192.489 1.97866H189.993V12.2609H189.969ZM200.425 12.2609H206.109V10.629H202.897V7.91464H205.678V6.27421H202.897V3.61909H206.048V1.97866H200.425V12.2609ZM207.02 1.97866L209.491 6.98027L206.959 12.2609H209.619L211.689 7.8639H212.096L212.035 12.2609H214.513L214.428 7.8639H214.816L216.863 12.2609H219.565L217.045 6.92953L219.504 1.9702H216.778L214.835 6.31649H214.428L214.513 1.97866H212.035L212.096 6.31649H211.689L209.758 1.97866H207.02ZM220.136 10.5994V13.9056H222.407V12.2609H227.264V13.8971H229.529V10.5994H228.558L226.22 1.94906H223.421L221.089 10.5994H220.136ZM224.781 5.01852L226.099 10.6839H223.457L224.757 5.01852H224.781ZM232.96 12.2609L236.858 1.9702H234.387L232.869 6.6209L231.302 1.9702H228.789L231.606 9.26334L230.483 12.2609H232.96ZM237.854 12.2609H240.332V7.91464H242.706V12.2609H245.183V1.97866H242.706V6.27421H240.332V1.97866H237.854V12.2609ZM246.24 12.2609H248.632L249.118 10.1681H251.547L252.051 12.2609H254.529L251.699 1.94906H249.058L246.24 12.2609ZM249.489 8.61224L250.339 5.06503L251.189 8.61224H249.489ZM255.597 12.2609H258.069V9.00121H258.129C260.789 8.89128 262.592 7.73284 262.592 5.454V5.42863C262.592 3.05255 260.643 1.97866 257.862 1.97866H255.591V12.2609H255.597ZM258.069 7.40729V3.57681H258.19C259.405 3.57681 260.115 4.13912 260.115 5.48359V5.49628C260.115 6.79424 259.283 7.3481 258.129 7.39038L258.069 7.40729ZM267.523 12.4089C269.843 12.4089 271.421 10.7685 271.421 7.37769V6.87034C271.421 3.48802 269.843 1.83914 267.523 1.83914C265.204 1.83914 263.631 3.47534 263.631 6.87034V7.37769C263.631 10.76 265.21 12.4089 267.523 12.4089ZM267.523 10.8277C266.716 10.8277 266.145 10.0497 266.145 7.37769V6.87034C266.145 4.19831 266.716 3.42037 267.523 3.42037C268.331 3.42037 268.908 4.19831 268.908 6.87034V7.37769C268.908 10.0497 268.337 10.8277 267.523 10.8277ZM271.828 10.5994V13.9056H274.105V12.2609H278.933V13.8971H281.21V10.5994H280.25L277.925 1.94906H275.126L272.788 10.5994H271.828ZM276.48 5.01852L277.797 10.6839H275.18L276.48 5.01852ZM282.43 12.2609H284.908V7.91464H287.282V12.2609H289.76V1.97866H287.282V6.27421H284.908V1.97866H282.43V12.2609ZM291.539 12.2609H293.591C296.597 12.2609 298.54 11.0433 298.54 8.79827V8.76867C298.54 6.56171 296.755 5.44554 294.059 5.38635H294.016V1.97866H291.539V12.2609ZM294.016 10.6501V6.96759H294.138C295.352 6.96759 296.069 7.51721 296.069 8.80672V8.849C296.069 10.092 295.212 10.6163 294.077 10.6585L294.016 10.6501ZM299.42 12.2609H301.898V1.97866H299.42V12.2609ZM307.417 1.59815C307.733 1.62091 308.052 1.59596 308.352 1.52501C308.653 1.45405 308.928 1.33877 309.159 1.18704C309.389 1.03531 309.57 0.850704 309.689 0.645837C309.807 0.440971 309.861 0.220674 309.846 0L308.425 0C308.402 0.165003 308.287 0.317013 308.104 0.423068C307.921 0.529123 307.685 0.580673 307.448 0.566539C307.328 0.577097 307.207 0.570654 307.091 0.547601C306.975 0.524548 306.867 0.485363 306.773 0.432412C306.679 0.379461 306.602 0.313844 306.546 0.239523C306.49 0.165203 306.456 0.0837209 306.446 0L305.025 0C305.025 1.07389 306.039 1.59815 307.417 1.59815ZM311.134 12.2609V1.97866H308.656L306.082 7.71592V1.97866H303.683V12.2609H306.039L308.759 6.26575V12.2609H311.134ZM323.8 12.2609V1.97866H321.323L318.748 7.71592V1.97866H316.362V12.2609H318.7L321.42 6.26575V12.2609H323.8ZM325.586 12.2609H328.063V7.91464H330.437V12.2609H332.915V1.97866H330.437V6.27421H328.063V1.97866H325.586V12.2609ZM338.58 12.3286C339.231 12.3549 339.88 12.2476 340.444 12.0199V10.3288C340.02 10.5231 339.53 10.6355 339.023 10.6543C337.809 10.6543 336.953 10.0582 336.953 7.30159V6.93376C336.953 4.3336 337.809 3.58526 338.987 3.58526C339.496 3.60385 339.988 3.72098 340.408 3.92349V2.13509C339.887 1.96801 339.317 1.88974 338.744 1.90678C336.315 1.90678 334.439 3.3485 334.439 6.9549V7.29313C334.439 10.8699 336.224 12.337 338.58 12.337V12.3286ZM343.371 12.2609H345.848V3.61909H347.67V1.97866H341.501V3.61909H343.371V12.2609ZM356.438 12.2609V1.97866H353.961L351.38 7.71592V1.97866H348.988V12.2609H351.32L354.04 6.26575V12.2609H356.438ZM359.602 12.2609H362.079V3.61909H363.901V1.97866H357.744V3.61909H359.608V12.2609H359.602ZM368.473 12.2609L372.372 1.9702H369.894L368.37 6.6209L366.81 1.9702H364.29L367.113 9.26334L366.002 12.2609H368.473ZM374.704 12.2609H377.181V3.61909H379.003V1.97866H372.833V3.61909H374.698V12.2609H374.704ZM189.969 29.2275H192.446V25.9636H192.507C195.167 25.8494 196.97 24.6952 196.97 22.4163V22.4079C196.97 20.036 195.021 18.9621 192.24 18.9621H189.969V29.2275ZM192.446 24.3654V20.5349H192.568C193.782 20.5349 194.493 21.1015 194.493 22.4459V22.4713C194.493 23.7735 193.661 24.3231 192.507 24.3654H192.446ZM196.77 29.2275H199.168L199.66 27.1389H202.089L202.593 29.2275H205.071L202.204 18.9114H199.593L196.77 29.2275ZM200.018 25.583L200.869 22.0358L201.725 25.583H200.018ZM206.048 20.8774C206.668 20.6334 207.364 20.497 208.076 20.48C209.109 20.48 209.6 20.9028 209.6 21.7483V21.7779C209.6 22.7799 208.926 23.2746 207.59 23.2746H206.819V24.8305H207.609C209.09 24.8305 209.619 25.3082 209.619 26.2003V26.2426C209.619 27.2023 209.011 27.6547 207.973 27.6547C207.229 27.6338 206.507 27.4731 205.884 27.1896V28.94C206.602 29.175 207.386 29.2963 208.179 29.2951C210.554 29.2951 212.054 28.2339 212.054 26.3821V26.3145C212.054 25.0842 211.24 24.3062 209.861 23.968C210.542 23.7689 211.115 23.4248 211.498 22.9851C211.881 22.5453 212.054 22.0325 211.993 21.52V21.4524C211.993 19.7105 210.614 18.8649 208.441 18.8649C207.619 18.8571 206.805 18.9679 206.048 19.1905V20.8816V20.8774ZM213.456 29.2275H215.709C218.569 29.2275 220.567 28.1959 220.567 26.3863V26.2595C220.567 24.9446 219.492 24.3231 218.211 23.9553C218.881 23.7753 219.455 23.4542 219.851 23.0366C220.247 22.6191 220.446 22.1259 220.421 21.6257V21.5623C220.44 21.2392 220.363 20.9167 220.196 20.615C220.029 20.3132 219.775 20.0385 219.449 19.8077C218.575 19.2031 217.172 18.9621 215.648 18.9621H213.481V29.2275H213.456ZM217.944 21.8921C217.972 22.0786 217.942 22.2672 217.853 22.4444C217.765 22.6216 217.621 22.783 217.432 22.9168C217.243 23.0507 217.014 23.1537 216.762 23.2185C216.509 23.2833 216.238 23.3082 215.97 23.2915H215.891V20.5349H215.97C217.185 20.5349 217.944 20.9577 217.944 21.8667V21.8921ZM218.101 26.2468C218.101 27.1516 217.251 27.6336 215.97 27.6336H215.891V24.7924H215.994C216.268 24.7721 216.544 24.7932 216.805 24.8543C217.066 24.9154 217.304 25.015 217.505 25.1463C217.705 25.2777 217.862 25.4376 217.965 25.6151C218.068 25.7927 218.114 25.9837 218.101 26.175V26.2468ZM229.347 29.2064V18.941H226.87L224.295 24.6783V18.941H221.897V29.2275H224.234L226.955 23.2535V29.2275L229.347 29.2064ZM232.517 29.2064H234.994V20.5772H236.816V18.941H230.622V20.5772H232.493V29.2275L232.517 29.2064ZM245.59 29.2064V18.941H243.113L240.532 24.6783V18.941H238.14V29.2275H240.459L243.192 23.2535V29.2275L245.59 29.2064ZM254.176 18.941H251.778C248.511 18.941 247.029 20.3109 247.029 22.2303V22.3445C246.978 22.8734 247.118 23.4028 247.436 23.8843C247.754 24.3659 248.241 24.7842 248.851 25.1011L246.659 29.2275H249.337L251.159 25.6084H251.687V29.2275H254.164V18.941H254.176ZM251.699 20.5518V24.0568H251.535C250.321 24.0568 249.507 23.5875 249.507 22.3656V22.2515C249.507 20.9831 250.418 20.5603 251.596 20.5603L251.699 20.5518ZM263.024 29.3713C265.337 29.3713 266.922 27.7308 266.922 24.34V23.8285C266.922 20.4461 265.337 18.7973 263.024 18.7973C260.71 18.7973 259.125 20.4377 259.125 23.8285V24.34C259.125 27.7224 260.71 29.3713 263.024 29.3713ZM263.024 27.7858C262.216 27.7858 261.645 27.0079 261.645 24.34V23.8285C261.645 21.1564 262.216 20.3827 263.024 20.3827C263.831 20.3827 264.408 21.1564 264.408 23.8285V24.34C264.408 27.0079 263.837 27.7858 263.024 27.7858ZM268.446 29.2275H270.395C273.583 29.2275 275.447 28.0817 275.447 25.9762V25.9509C275.447 23.8369 273.626 22.856 270.96 22.8138H270.924V20.5772H274.719V18.941H268.446V29.2275ZM270.924 27.6336V24.3823H271.045C272.259 24.3823 272.97 24.877 272.97 26.0058V26.0354C272.97 27.1093 272.138 27.5871 270.984 27.6336H270.924ZM276.808 29.2275H279.285V25.9636H279.346C282.005 25.8494 283.809 24.6952 283.809 22.4163V22.4079C283.809 20.036 281.866 18.9621 279.085 18.9621H276.808V29.2275ZM279.285 24.3654V20.5349H279.406C280.621 20.5349 281.337 21.1015 281.337 22.4459V22.4713C281.337 23.7735 280.505 24.3231 279.346 24.3654H279.285ZM283.608 29.2275H286.001L286.487 27.1389H288.915L289.419 29.2275H291.897L289.055 18.9114H286.42L283.596 29.2275H283.608ZM286.857 25.583L287.707 22.0358L288.563 25.583H286.857ZM292.887 20.8774C293.507 20.6334 294.203 20.497 294.915 20.48C295.953 20.48 296.439 20.9028 296.439 21.7483V21.7779C296.439 22.7799 295.765 23.2746 294.429 23.2746H293.658V24.8305H294.447C295.929 24.8305 296.457 25.3082 296.457 26.2003V26.2426C296.457 27.2023 295.85 27.6547 294.812 27.6547C294.068 27.6332 293.346 27.4726 292.723 27.1896V28.94C293.441 29.175 294.225 29.2963 295.018 29.2951C297.392 29.2951 298.892 28.2339 298.892 26.3821V26.3145C298.892 25.0842 298.085 24.3062 296.7 23.968C297.381 23.7689 297.954 23.4248 298.337 22.9851C298.72 22.5453 298.893 22.0325 298.831 21.52V21.4524C298.831 19.7105 297.453 18.8649 295.279 18.8649C294.458 18.8571 293.643 18.9679 292.887 19.1905V20.8816V20.8774ZM303.926 29.3713C306.239 29.3713 307.824 27.7308 307.824 24.34V23.8285C307.824 20.4461 306.239 18.7973 303.926 18.7973C301.612 18.7973 300.028 20.4377 300.028 23.8285V24.34C300.028 27.7224 301.612 29.3713 303.926 29.3713ZM303.926 27.7858C303.118 27.7858 302.548 27.0079 302.548 24.34V23.8285C302.548 21.1564 303.118 20.3827 303.926 20.3827C304.734 20.3827 305.31 21.1564 305.31 23.8285V24.34C305.31 27.0079 304.74 27.7858 303.926 27.7858ZM309.348 29.2275H311.601C314.461 29.2275 316.459 28.1959 316.459 26.3863V26.2595C316.459 24.9446 315.384 24.3231 314.103 23.9553C314.767 23.7712 315.332 23.4483 315.722 23.0311C316.111 22.6139 316.305 22.1229 316.277 21.6257V21.5623C316.296 21.2392 316.219 20.9167 316.052 20.615C315.885 20.3132 315.631 20.0385 315.305 19.8077C314.431 19.2031 313.028 18.9621 311.51 18.9621H309.336V29.2275H309.348ZM313.836 21.8921C313.865 22.0786 313.834 22.2672 313.745 22.4444C313.657 22.6216 313.513 22.783 313.325 22.9168C313.136 23.0507 312.907 23.1537 312.654 23.2185C312.401 23.2833 312.131 23.3082 311.862 23.2915H311.783V20.5349H311.862C313.077 20.5349 313.836 20.9577 313.836 21.8667V21.8921ZM313.994 26.2468C313.994 27.1516 313.144 27.6336 311.862 27.6336H311.783V24.7924H311.887C312.16 24.7721 312.437 24.7932 312.697 24.8543C312.958 24.9154 313.197 25.015 313.397 25.1463C313.597 25.2777 313.754 25.4376 313.857 25.6151C313.96 25.7927 314.007 25.9837 313.994 26.175V26.2468ZM316.957 29.2064H319.355L319.841 27.1178H322.27L322.78 29.2064H325.258L322.434 18.9114H319.793L316.969 29.2275L316.957 29.2064ZM320.206 25.5619L321.062 22.0147L321.912 25.5619H320.206ZM326.32 29.2064H328.792V24.877H331.172V29.2275H333.643V18.941H331.172V23.2535H328.792V18.941H326.32V29.2275V29.2064ZM342.879 29.2064V18.941H340.408L337.827 24.6783V18.941H335.435V29.2275H337.766L340.487 23.2535V29.2275L342.879 29.2064ZM351.471 18.941H349.042C345.776 18.941 344.294 20.3109 344.294 22.2303V22.3445C344.24 22.8736 344.378 23.4037 344.697 23.8856C345.015 24.3675 345.503 24.7856 346.116 25.1011L343.924 29.2275H346.601L348.423 25.6084H348.951V29.2275H351.429V18.941H351.471ZM348.994 20.5518V24.0568H348.83C347.615 24.0568 346.802 23.5875 346.802 22.3656V22.2515C346.802 20.9831 347.713 20.5603 348.891 20.5603L348.994 20.5518Z" fill="white"/>
<path d="M181.614 1.97754V29.2264H181.055V1.97754H181.614Z" fill="white"/>
<path fill-rule="evenodd" clip-rule="evenodd" d="M169.366 1.96717H145.806C144.686 1.9621 143.598 2.22656 142.726 2.71579C141.854 3.20501 141.252 3.88896 141.021 4.65189L140.268 7.01529L161.077 6.97301V7.0026H162.899L157.343 24.1848H146.279L150.299 11.1206H138.968L134.554 25.0727C134.396 25.571 134.4 26.0877 134.567 26.5846C134.734 27.0815 135.059 27.546 135.518 27.9437C135.978 28.3414 136.559 28.6622 137.221 28.8824C137.882 29.1027 138.606 29.2166 139.339 29.216H163.397C164.525 29.2215 165.622 28.9531 166.497 28.457C167.372 27.9609 167.972 27.2681 168.194 26.4975L174.266 6.06401C174.425 5.56736 174.417 5.05191 174.243 4.55771C174.069 4.0635 173.734 3.60383 173.264 3.2144C172.813 2.81398 172.235 2.49128 171.576 2.27133C170.917 2.05137 170.194 1.94006 169.463 1.94603L169.366 1.96717Z" fill="white"/>
</svg>
