<svg width="151" height="52" viewBox="0 0 151 52" fill="none" xmlns="http://www.w3.org/2000/svg">
<path d="M95.1961 15.4651L96.0618 11.3482H86.2445L81.4941 33.8013H91.3115L93.808 21.9467H104.137C110.017 21.9467 112.287 20.0465 113.395 14.7684L114.979 7.45295C116.066 2.17483 114.678 0.000244141 108.84 0.000244141H88.6724L87.3529 6.20204H105.457L103.404 15.5285H95.1856V15.4651H95.1961Z" fill="white" fill-opacity="0.5"/>
<path d="M54.1799 0.000244141H63.9972L62.7146 6.20204H52.8973L54.1799 0.000244141ZM61.6484 11.3482L60.2022 18.3364L72.7958 0.000244141H82.8665L75.8994 33.7802H66.0345L69.8295 15.4651L57.2412 33.7802H47.2128L51.8575 11.3271L61.6484 11.3482Z" fill="white" fill-opacity="0.5"/>
<path d="M0 33.7807H9.81731L13.2428 17.5716L16.5311 33.7807H24.8652L35.0045 17.5927L31.579 33.7807H41.4385L48.6168 0.000732422H37.3638L22.8701 23.4725L20.553 11.3329H4.75031L0 33.7807ZM19.566 6.20253L18.3837 0.000732422H7.17825L5.85871 6.20253H19.566Z" fill="white" fill-opacity="0.5"/>
<path fill-rule="evenodd" clip-rule="evenodd" d="M146.204 0.000197874H125.846C124.881 -0.00727488 123.943 0.319152 123.191 0.924186C122.438 1.52922 121.918 2.37566 121.719 3.32014L121.07 6.25477L139.015 6.20199V6.23894H140.567L135.817 27.5414H126.263L129.731 11.3482H119.951L116.119 28.6498C115.982 29.2687 115.987 29.9103 116.133 30.5271C116.278 31.1439 116.561 31.72 116.959 32.2128C117.358 32.7055 117.862 33.1023 118.434 33.3736C119.007 33.645 119.634 33.7839 120.267 33.7802H141.031C142.005 33.7818 142.949 33.447 143.704 32.8324C144.459 32.2178 144.979 31.3611 145.175 30.4075L150.416 5.07247C150.546 4.46375 150.536 3.83345 150.387 3.22909C150.238 2.62474 149.954 2.06211 149.556 1.58363C149.167 1.08509 148.668 0.682877 148.099 0.408255C147.53 0.133633 146.905 -0.00600343 146.273 0.000197874H146.204Z" fill="white" fill-opacity="0.5"/>
<path d="M141.855 49.6147H143.755V40.0613H145.175V38.2509H140.424V40.0613H141.86V49.6147H141.855ZM137.068 49.6147L140.06 38.2668H138.16L136.988 43.3813L135.79 38.2668H133.858L136.022 46.3106L135.167 49.6147H137.068ZM130.259 49.6147H132.159V40.0613H133.579V38.2509H128.828V40.0613H130.264V49.6147H130.259ZM127.826 49.6147V38.2509H125.925L123.946 44.5847V38.2509H122.104V49.6147H123.899L126.01 43.0065V49.6147H127.826ZM117.797 49.6147H119.703V40.0613H121.117V38.2509H116.367V40.0613H117.797V49.6147ZM114.102 49.6939C114.604 49.7211 115.103 49.6019 115.538 49.3508V47.4613C115.213 47.678 114.836 47.8021 114.446 47.8202C113.511 47.8202 112.862 47.1657 112.862 44.1255V43.7244C112.862 40.8531 113.517 40.0297 114.419 40.0297C114.812 40.0475 115.191 40.1775 115.512 40.4044V38.4251C115.113 38.2386 114.674 38.1517 114.234 38.1718C112.392 38.1718 110.93 39.7552 110.93 43.7402V44.1149C110.93 48.0577 112.303 49.6781 114.097 49.6781L114.102 49.6939ZM104.132 49.6147H106.037V44.8116H107.858V49.6147H109.785V38.2509H107.885V43.0013H106.037V38.2509H104.132V49.6147ZM102.76 49.6147V38.2509H100.86L98.8803 44.5847V38.2509H97.0435V49.6147H98.8328L100.944 43.0065V49.6147H102.76ZM93.0374 49.6147V38.2509H91.1373L89.1527 44.5847V38.2509H87.316V49.6147H89.1105L91.1954 43.0065V49.6147H93.0374ZM90.182 37.8445C90.4222 37.8666 90.6644 37.837 90.8922 37.7577C91.12 37.6784 91.3282 37.5511 91.5027 37.3846C91.6772 37.2181 91.8141 37.0161 91.904 36.7923C91.9939 36.5684 92.0349 36.3279 92.024 36.0869H90.9315C90.9128 36.2681 90.8238 36.4347 90.6837 36.5512C90.5436 36.6676 90.3635 36.7245 90.182 36.7097C90.0921 36.7184 90.0014 36.7091 89.9151 36.6824C89.8288 36.6557 89.7487 36.6121 89.6795 36.5542C89.6102 36.4962 89.5531 36.425 89.5117 36.3448C89.4702 36.2646 89.445 36.1769 89.4378 36.0869H88.3452C88.33 36.3286 88.3677 36.5706 88.4558 36.7961C88.5438 37.0217 88.6801 37.2253 88.855 37.3927C89.03 37.5601 89.2394 37.6872 89.4686 37.7653C89.6978 37.8433 89.9412 37.8704 90.182 37.8445ZM84.0435 49.6147H85.9436V38.2509H84.0435V49.6147ZM79.8949 47.836V43.756H79.9899C80.9083 43.756 81.4731 44.363 81.4731 45.7775V45.825C81.4731 47.1974 80.8186 47.7727 79.9424 47.8202L79.8949 47.836ZM77.9948 49.6147H79.5782C81.8848 49.6147 83.3838 48.2741 83.3838 45.7934C83.3838 43.3602 82.0114 42.1304 79.9371 42.0512H79.9055V38.2509H78.0053V49.6147H77.9948ZM70.996 49.6147H72.8961V44.8116H74.7224V49.6147H76.6225V38.2509H74.7224V43.0013H72.8961V38.2509H70.996V49.6147ZM66.4304 41.6184L67.4438 47.8677H65.4487L66.4463 41.6184H66.4304ZM62.8624 47.7621V51.4093H64.6042V49.6147H68.2989V51.4093H70.046V47.7621H69.3123L67.56 38.2193H65.4065L63.6119 47.7621H62.8624ZM59.5583 48.0102C58.9302 48.0102 58.5027 47.1499 58.5027 44.2047V43.6452C58.5027 40.7 58.9355 39.8397 59.5583 39.8397C60.1811 39.8397 60.6139 40.7 60.6139 43.6452V44.2047C60.6139 47.1499 60.1811 48.0102 59.5583 48.0102ZM59.5583 49.752C61.3318 49.752 62.551 47.9469 62.551 44.2047V43.6452C62.551 39.903 61.3318 38.0979 59.5583 38.0979C57.7849 38.0979 56.5656 39.903 56.5656 43.6452V44.2047C56.5656 47.9469 57.7796 49.752 59.5583 49.752ZM52.2956 44.2363V40.0138H52.3854C53.3037 40.0138 53.8685 40.6367 53.8685 42.1251V42.1568C53.8685 43.5924 53.2299 44.1994 52.3379 44.268L52.2956 44.2363ZM50.3902 49.6147H52.2956V45.9992H52.3379C54.3805 45.8726 55.7686 44.6111 55.7686 42.0881V42.0565C55.7686 39.4174 54.2749 38.2509 52.1373 38.2509H50.3902V49.6147ZM45.698 45.5928L46.3525 41.6817L47.0069 45.5928H45.698ZM43.2067 49.6147H45.0435L45.4182 47.3082H47.292L47.6773 49.6147H49.5827L47.3975 38.2193H45.3918L43.2067 49.6147ZM36.7674 49.6147H38.6728V44.8116H40.4937V49.6147H42.3939V38.2509H40.4937V43.0013H38.6728V38.2509H36.7674V49.6147ZM33.0146 49.6147L36.0073 38.2668H34.1019L32.9355 43.3654L31.7321 38.2509H29.8003L31.9696 46.2948L31.1092 49.6147H33.0146ZM26.7284 41.6025L27.7418 47.8518H25.7308L26.7284 41.6025ZM23.1604 47.7621V51.4093H24.9075V49.6147H28.6021V51.4093H30.3492V47.7621H29.6314L27.8368 38.2193H25.6886L23.8941 47.7621H23.1604ZM13.095 38.2615L14.9793 43.7824L13.0475 49.6147H15.0901L16.6736 44.7694H16.985L16.9428 49.6147H18.8429L18.7796 44.7694H19.0804L20.6638 49.6147H22.7381L20.7905 43.7244L22.6959 38.2509H20.5847L19.0857 43.0382H18.7743L18.8376 38.2509H16.9428L16.9903 43.0382H16.6789L15.1957 38.2509L13.095 38.2615ZM8.02802 49.6147H12.393V47.7885H9.92815V44.7958H12.0658V42.9907H9.92815V40.0613H12.3455V38.2509H8.02802V49.6147ZM0 49.6147H1.82095V42.5368L3.3041 46.9757H3.35161L4.82948 42.5157V49.6147H6.65571V38.2509H4.75031L3.31994 42.6793L1.91596 38.2509H0V49.6147Z" fill="white" fill-opacity="0.5"/>
</svg>
