<svg width="389" height="30" viewBox="0 0 389 30" fill="none" xmlns="http://www.w3.org/2000/svg">
<path d="M112.953 14.7474L114.01 11.3574H102.332L96.673 29.8575H108.32L111.311 20.0892H123.562C130.539 20.0892 133.232 18.526 134.55 14.1773L136.415 8.13156C137.734 3.78292 136.086 1.99078 129.165 1.99078H105.186L103.625 7.10378H125.104L122.666 14.7862H112.934V14.7301L112.953 14.7474Z" fill="#B3171A"/>
<path d="M64.287 2.00806H75.9343L74.4107 7.12106H62.7634L64.287 2.00806ZM73.1421 11.3574L71.4258 17.1139L86.3503 1.99942H98.3271L90.0503 29.8575H78.3533L82.8555 14.743L67.931 29.8575H55.9666L61.5011 11.3574H73.1421Z" fill="#B3171A"/>
<path d="M0 29.8575H11.6473L15.7142 16.5049L19.6132 29.8575H29.5006L41.5334 16.5049L37.4665 29.8575H49.1698L57.6829 2.00803H44.3318L27.1376 21.3502L24.3828 11.3574H5.65885L0 29.8575ZM23.2199 7.12102L21.8083 2.00803H8.51314L6.9523 7.12102H23.2199Z" fill="#B3171A"/>
<path d="M194.546 12.5234H196.978V5.98964L198.955 10.118H199.017L200.988 5.98964V12.5234H203.42V2.02102H200.858L198.992 6.11919L197.127 2.02102H194.571V12.5234H194.546ZM205.254 12.5234H211.075V10.8565H207.785V8.08406H210.633V6.40852H207.785V3.69656H211.013V2.02102H205.254V12.5234ZM212.008 2.02102L214.539 7.1297L211.945 12.5234H214.669L216.79 8.03224H217.206L217.144 12.5234H219.681L219.594 8.03224H219.992L222.088 12.5234H224.855L222.274 7.07788L224.793 2.01238H222.001L220.011 6.45171H219.594L219.681 2.02102H217.144L217.206 6.45171H216.79L214.812 2.02102H212.008ZM225.44 10.8263V14.2033H227.765V12.5234H232.74V14.1946H235.06V10.8263H234.065L231.671 1.99079H228.804L226.416 10.8263H225.44ZM230.197 5.12595L231.546 10.9126H228.841L230.172 5.12595H230.197ZM238.573 12.5234L242.565 2.01238H240.035L238.48 6.76263L236.876 2.01238H234.301L237.186 9.46164L236.036 12.5234H238.573ZM243.585 12.5234H246.122V8.08406H248.554V12.5234H251.091V2.02102H248.554V6.40852H246.122V2.02102H243.585V12.5234ZM252.173 12.5234H254.623L255.121 10.3858H257.608L258.124 12.5234H260.661L257.764 1.99079H255.058L252.173 12.5234ZM255.5 8.7966L256.371 5.17346L257.241 8.7966H255.5ZM261.756 12.5234H264.287V9.1939H264.349C267.073 9.08162 268.92 7.89837 268.92 5.57075V5.54484C268.92 3.11789 266.923 2.02102 264.075 2.02102H261.75V12.5234H261.756ZM264.287 7.56586V3.65338H264.411C265.655 3.65338 266.382 4.22772 266.382 5.60098V5.61393C266.382 6.93969 265.53 7.5054 264.349 7.54858L264.287 7.56586ZM273.969 12.6745C276.344 12.6745 277.961 10.999 277.961 7.53563V7.01742C277.961 3.56269 276.344 1.87851 273.969 1.87851C271.593 1.87851 269.983 3.54973 269.983 7.01742V7.53563C269.983 10.9904 271.6 12.6745 273.969 12.6745ZM273.969 11.0595C273.142 11.0595 272.557 10.2649 272.557 7.53563V7.01742C272.557 4.28818 273.142 3.49359 273.969 3.49359C274.796 3.49359 275.387 4.28818 275.387 7.01742V7.53563C275.387 10.2649 274.802 11.0595 273.969 11.0595ZM278.378 10.8263V14.2033H280.71V12.5234H285.654V14.1946H287.985V10.8263H287.003L284.621 1.99079H281.755L279.36 10.8263H278.378ZM283.141 5.12595L284.491 10.9126H281.81L283.141 5.12595ZM289.235 12.5234H291.773V8.08406H294.204V12.5234H296.741V2.02102H294.204V6.40852H291.773V2.02102H289.235V12.5234ZM298.563 12.5234H300.665C303.743 12.5234 305.733 11.2797 305.733 8.98661V8.95638C305.733 6.70217 303.905 5.56211 301.144 5.50166H301.1V2.02102H298.563V12.5234ZM301.1 10.8781V7.11674H301.225C302.468 7.11674 303.202 7.67813 303.202 8.99525V9.03843C303.202 10.308 302.325 10.8435 301.162 10.8867L301.1 10.8781ZM306.635 12.5234H309.172V2.02102H306.635V12.5234ZM314.825 1.63236C315.148 1.6556 315.474 1.63012 315.782 1.55765C316.09 1.48518 316.371 1.36743 316.608 1.21245C316.844 1.05747 317.029 0.868915 317.15 0.659663C317.272 0.450411 317.327 0.225398 317.312 0L315.857 0C315.833 0.168535 315.715 0.3238 315.527 0.432125C315.34 0.54045 315.099 0.593104 314.856 0.578667C314.733 0.589451 314.609 0.58287 314.49 0.559324C314.371 0.535777 314.26 0.495753 314.164 0.441669C314.069 0.387584 313.989 0.320562 313.932 0.244651C313.874 0.168739 313.84 0.0855131 313.83 0L312.374 0C312.374 1.09688 313.413 1.63236 314.825 1.63236ZM318.63 12.5234V2.02102H316.093L313.456 7.8811V2.02102H311V12.5234H313.413L316.199 6.39988V12.5234H318.63ZM331.602 12.5234V2.02102H329.065L326.428 7.8811V2.02102H323.984V12.5234H326.379L329.164 6.39988V12.5234H331.602ZM333.43 12.5234H335.968V8.08406H338.399V12.5234H340.936V2.02102H338.399V6.40852H335.968V2.02102H333.43V12.5234ZM346.738 12.5925C347.405 12.6194 348.069 12.5098 348.647 12.2772V10.5499C348.213 10.7484 347.711 10.8632 347.192 10.8824C345.948 10.8824 345.071 10.2735 345.071 7.4579V7.08219C345.071 4.42637 345.948 3.66201 347.155 3.66201C347.676 3.68099 348.18 3.80063 348.61 4.00748V2.1808C348.077 2.01014 347.492 1.93019 346.906 1.9476C344.418 1.9476 342.497 3.42018 342.497 7.10379V7.44926C342.497 11.1026 344.325 12.6011 346.738 12.6011V12.5925ZM351.644 12.5234H354.182V3.69656H356.047V2.02102H349.729V3.69656H351.644V12.5234ZM365.027 12.5234V2.02102H362.489L359.847 7.8811V2.02102H357.396V12.5234H359.784L362.57 6.39988V12.5234H365.027ZM368.266 12.5234H370.804V3.69656H372.669V2.02102H366.364V3.69656H368.273V12.5234H368.266ZM377.352 12.5234L381.344 2.01238H378.807L377.246 6.76263L375.648 2.01238H373.067L375.959 9.46164L374.821 12.5234H377.352ZM383.732 12.5234H386.269V3.69656H388.135V2.02102H381.817V3.69656H383.726V12.5234H383.732ZM194.546 29.8532H197.083V26.5194H197.145C199.869 26.4028 201.716 25.2238 201.716 22.8962V22.8876C201.716 20.4649 199.72 19.3681 196.872 19.3681H194.546V29.8532ZM197.083 24.887V20.9745H197.208C198.451 20.9745 199.179 21.5532 199.179 22.9264V22.9524C199.179 24.2824 198.327 24.8438 197.145 24.887H197.083ZM201.511 29.8532H203.967L204.471 27.7199H206.958L207.474 29.8532H210.012L207.076 19.3163H204.402L201.511 29.8532ZM204.838 26.1307L205.708 22.5076L206.585 26.1307H204.838ZM211.013 21.3243C211.648 21.075 212.36 20.9358 213.09 20.9184C214.147 20.9184 214.651 21.3502 214.651 22.2139V22.2441C214.651 23.2676 213.96 23.7729 212.592 23.7729H211.802V25.362H212.611C214.128 25.362 214.669 25.85 214.669 26.7612V26.8044C214.669 27.7847 214.047 28.2467 212.984 28.2467C212.222 28.2254 211.483 28.0612 210.845 27.7717V29.5595C211.58 29.7996 212.383 29.9235 213.195 29.9223C215.627 29.9223 217.163 28.8383 217.163 26.9469V26.8778C217.163 25.6211 216.33 24.8265 214.918 24.4811C215.615 24.2777 216.202 23.9263 216.594 23.4771C216.986 23.028 217.164 22.5041 217.101 21.9807V21.9116C217.101 20.1324 215.689 19.2687 213.463 19.2687C212.622 19.2607 211.788 19.374 211.013 19.6013V21.3286V21.3243ZM218.599 29.8532H220.906C223.835 29.8532 225.881 28.7995 225.881 26.9512V26.8216C225.881 25.4786 224.781 24.8438 223.468 24.4681C224.155 24.2843 224.742 23.9563 225.148 23.5298C225.554 23.1033 225.758 22.5995 225.732 22.0887V22.0239C225.751 21.6938 225.673 21.3645 225.502 21.0563C225.331 20.7481 225.07 20.4674 224.737 20.2318C223.842 19.6142 222.405 19.3681 220.844 19.3681H218.624V29.8532H218.599ZM223.195 22.3607C223.224 22.5512 223.193 22.7439 223.102 22.9249C223.012 23.1059 222.864 23.2707 222.671 23.4074C222.478 23.5441 222.243 23.6494 221.984 23.7155C221.725 23.7817 221.449 23.8072 221.174 23.7901H221.093V20.9745H221.174C222.417 20.9745 223.195 21.4064 223.195 22.3348V22.3607ZM223.356 26.8087C223.356 27.7328 222.486 28.2251 221.174 28.2251H221.093V25.3232H221.199C221.479 25.3024 221.762 25.3239 222.029 25.3863C222.296 25.4487 222.54 25.5505 222.745 25.6846C222.95 25.8188 223.111 25.9821 223.216 26.1635C223.322 26.3448 223.37 26.5399 223.356 26.7353V26.8087ZM234.873 29.8316V19.3465H232.336L229.699 25.2066V19.3465H227.243V29.8532H229.637L232.423 23.7513V29.8532L234.873 29.8316ZM238.119 29.8316H240.656V21.0177H242.522V19.3465H236.179V21.0177H238.094V29.8532L238.119 29.8316ZM251.508 29.8316V19.3465H248.971L246.328 25.2066V19.3465H243.878V29.8532H246.253L249.051 23.7513V29.8532L251.508 29.8316ZM260.301 19.3465H257.844C254.499 19.3465 252.981 20.7456 252.981 22.7062V22.8228C252.929 23.363 253.072 23.9038 253.398 24.3956C253.724 24.8875 254.222 25.3148 254.847 25.6384L252.602 29.8532H255.344L257.21 26.1566H257.751V29.8532H260.288V19.3465H260.301ZM257.764 20.9918V24.5718H257.596C256.352 24.5718 255.519 24.0924 255.519 22.8444V22.7278C255.519 21.4323 256.451 21.0004 257.658 21.0004L257.764 20.9918ZM269.361 30C271.73 30 273.353 28.3245 273.353 24.8611V24.3386C273.353 20.8838 271.73 19.1997 269.361 19.1997C266.992 19.1997 265.369 20.8752 265.369 24.3386V24.8611C265.369 28.3158 266.992 30 269.361 30ZM269.361 28.3806C268.534 28.3806 267.949 27.586 267.949 24.8611V24.3386C267.949 21.6093 268.534 20.8191 269.361 20.8191C270.188 20.8191 270.779 21.6093 270.779 24.3386V24.8611C270.779 27.586 270.194 28.3806 269.361 28.3806ZM274.914 29.8532H276.91C280.175 29.8532 282.084 28.6829 282.084 26.5323V26.5064C282.084 24.3472 280.219 23.3453 277.489 23.3021H277.451V21.0177H281.338V19.3465H274.914V29.8532ZM277.451 28.2251V24.9043H277.576C278.819 24.9043 279.547 25.4095 279.547 26.5625V26.5928C279.547 27.6896 278.695 28.1776 277.513 28.2251H277.451ZM283.477 29.8532H286.014V26.5194H286.076C288.8 26.4028 290.647 25.2238 290.647 22.8962V22.8876C290.647 20.4649 288.657 19.3681 285.809 19.3681H283.477V29.8532ZM286.014 24.887V20.9745H286.139C287.382 20.9745 288.116 21.5532 288.116 22.9264V22.9524C288.116 24.2824 287.264 24.8438 286.076 24.887H286.014ZM290.442 29.8532H292.892L293.389 27.7199H295.877L296.393 29.8532H298.93L296.02 19.3163H293.321L290.429 29.8532H290.442ZM293.769 26.1307L294.639 22.5076L295.516 26.1307H293.769ZM299.944 21.3243C300.579 21.075 301.291 20.9358 302.021 20.9184C303.084 20.9184 303.581 21.3502 303.581 22.2139V22.2441C303.581 23.2676 302.891 23.7729 301.523 23.7729H300.733V25.362H301.542C303.059 25.362 303.6 25.85 303.6 26.7612V26.8044C303.6 27.7847 302.978 28.2467 301.915 28.2467C301.153 28.2248 300.414 28.0607 299.776 27.7717V29.5595C300.511 29.7996 301.314 29.9235 302.126 29.9223C304.558 29.9223 306.094 28.8383 306.094 26.9469V26.8778C306.094 25.6211 305.267 24.8265 303.849 24.4811C304.546 24.2777 305.133 23.9263 305.525 23.4771C305.917 23.028 306.095 22.5041 306.032 21.9807V21.9116C306.032 20.1324 304.62 19.2687 302.394 19.2687C301.553 19.2607 300.718 19.374 299.944 19.6013V21.3286V21.3243ZM311.249 30C313.618 30 315.241 28.3245 315.241 24.8611V24.3386C315.241 20.8838 313.618 19.1997 311.249 19.1997C308.88 19.1997 307.257 20.8752 307.257 24.3386V24.8611C307.257 28.3158 308.88 30 311.249 30ZM311.249 28.3806C310.422 28.3806 309.837 27.586 309.837 24.8611V24.3386C309.837 21.6093 310.422 20.8191 311.249 20.8191C312.076 20.8191 312.667 21.6093 312.667 24.3386V24.8611C312.667 27.586 312.082 28.3806 311.249 28.3806ZM316.802 29.8532H319.109C322.038 29.8532 324.084 28.7995 324.084 26.9512V26.8216C324.084 25.4786 322.983 24.8438 321.671 24.4681C322.351 24.2801 322.93 23.9502 323.329 23.5241C323.728 23.098 323.926 22.5965 323.897 22.0887V22.0239C323.917 21.6938 323.838 21.3645 323.667 21.0563C323.496 20.7481 323.236 20.4674 322.902 20.2318C322.007 19.6142 320.57 19.3681 319.016 19.3681H316.79V29.8532H316.802ZM321.398 22.3607C321.427 22.5512 321.396 22.7439 321.305 22.9249C321.214 23.1059 321.067 23.2707 320.874 23.4074C320.681 23.5441 320.446 23.6494 320.187 23.7155C319.928 23.7817 319.651 23.8072 319.377 23.7901H319.296V20.9745H319.377C320.62 20.9745 321.398 21.4064 321.398 22.3348V22.3607ZM321.559 26.8087C321.559 27.7328 320.689 28.2251 319.377 28.2251H319.296V25.3232H319.401C319.681 25.3024 319.965 25.3239 320.232 25.3863C320.499 25.4487 320.743 25.5505 320.948 25.6846C321.153 25.8188 321.314 25.9821 321.419 26.1635C321.525 26.3448 321.572 26.5399 321.559 26.7353V26.8087ZM324.594 29.8316H327.05L327.548 27.6983H330.035L330.557 29.8316H333.095L330.203 19.3163H327.498L324.606 29.8532L324.594 29.8316ZM327.921 26.1091L328.798 22.486L329.668 26.1091H327.921ZM334.183 29.8316H336.714V25.4095H339.151V29.8532H341.682V19.3465H339.151V23.7513H336.714V19.3465H334.183V29.8532V29.8316ZM351.141 29.8316V19.3465H348.61L345.967 25.2066V19.3465H343.517V29.8532H345.905L348.691 23.7513V29.8532L351.141 29.8316ZM359.94 19.3465H357.452C354.107 19.3465 352.59 20.7456 352.59 22.7062V22.8228C352.534 23.3632 352.676 23.9047 353.002 24.3969C353.328 24.8891 353.828 25.3161 354.455 25.6384L352.21 29.8532H354.953L356.818 26.1566H357.359V29.8532H359.896V19.3465H359.94ZM357.403 20.9918V24.5718H357.235C355.991 24.5718 355.158 24.0924 355.158 22.8444V22.7278C355.158 21.4323 356.091 21.0004 357.297 21.0004L357.403 20.9918Z" fill="#4F6382"/>
<path d="M185.989 2.021V29.8532H185.417V2.021H185.989Z" fill="#4F6382"/>
<path fill-rule="evenodd" clip-rule="evenodd" d="M173.447 2.00803H149.319C148.172 2.00286 147.058 2.27298 146.165 2.77267C145.272 3.27237 144.655 3.97096 144.419 4.75022L143.648 7.16421L164.958 7.12103V7.15126H166.824L161.134 24.7013H149.804L153.921 11.3574H142.317L137.796 25.6081C137.634 26.1171 137.639 26.6449 137.81 27.1524C137.981 27.66 138.314 28.1344 138.784 28.5406C139.254 28.9469 139.85 29.2745 140.527 29.4995C141.204 29.7244 141.946 29.8408 142.696 29.8402H167.334C168.49 29.8458 169.612 29.5717 170.509 29.0649C171.405 28.5582 172.02 27.8505 172.247 27.0635L178.465 6.19257C178.628 5.68529 178.62 5.15881 178.442 4.65403C178.264 4.14924 177.921 3.67973 177.439 3.28196C176.977 2.87297 176.385 2.54337 175.71 2.3187C175.035 2.09404 174.295 1.98034 173.546 1.98644L173.447 2.00803Z" fill="#B3171A"/>
</svg>
